<svg width="397" height="100" viewBox="0 0 397 100" fill="none" xmlns="http://www.w3.org/2000/svg">
<rect width="397" height="100" fill="#4269FF"/>
<line x1="177.5" y1="77.5" x2="177.5" y2="17.5" stroke="#FEFEFE" stroke-width="5" stroke-linecap="round"/>
<line x1="177.5" y1="77.5" x2="212.5" y2="77.5" stroke="#FEFEFE" stroke-width="5" stroke-linecap="round"/>
<line x1="102.5" y1="77.5" x2="102.5" y2="17.5" stroke="#FEFEFE" stroke-width="5" stroke-linecap="round"/>
<line x1="232.5" y1="77.5" x2="232.5" y2="17.5" stroke="#FEFEFE" stroke-width="5" stroke-linecap="round"/>
<line x1="122.5" y1="77.5" x2="122.5" y2="17.5" stroke="#FEFEFE" stroke-width="5" stroke-linecap="round"/>
<line x1="122.5" y1="17.5" x2="157.5" y2="17.5" stroke="#FEFEFE" stroke-width="5" stroke-linecap="round"/>
<line x1="122.5" y1="47.5" x2="157.5" y2="47.5" stroke="#FEFEFE" stroke-width="5" stroke-linecap="round"/>
<line x1="122.5" y1="77.5" x2="157.5" y2="77.5" stroke="#FEFEFE" stroke-width="5" stroke-linecap="round"/>
<line x1="17.5" y1="17.5" x2="82.5" y2="17.5" stroke="#FEFEFE" stroke-width="5" stroke-linecap="round"/>
<line x1="17.5" y1="77.5" x2="82.5" y2="77.5" stroke="#FEFEFE" stroke-width="5" stroke-linecap="round"/>
<path d="M32 65.3553L67.3553 30" stroke="#FEFEFE" stroke-width="5" stroke-linecap="round"/>
<line x1="252.5" y1="77.5" x2="252.5" y2="17.5" stroke="#FEFEFE" stroke-width="5" stroke-linecap="round"/>
<line x1="299.5" y1="77.5" x2="299.5" y2="17.5" stroke="#FEFEFE" stroke-width="5" stroke-linecap="round"/>
<line x1="260.236" y1="29.75" x2="292.055" y2="61.5698" stroke="#FEFEFE" stroke-width="5" stroke-linecap="round"/>
<circle cx="349.5" cy="47.5" r="32.5" fill="#FEFEFE"/>
<circle cx="349.5" cy="47.5" r="27.5" fill="#4269FF"/>
</svg>
